<?xml version="1.0" ?><svg data-name="Layer 5" id="Layer_5" viewBox="0 0 32 32" xmlns="http://www.w3.org/2000/svg"><defs><style>.cls-1{fill:#fff;}.cls-2{fill:#f41870;}.cls-3{fill:#ffbbbc;}.cls-4{fill:#fee9be;}.cls-5{fill:#361041;}</style></defs><circle class="cls-1" cx="15.88" cy="14.16" r="12.69"/><polygon class="cls-2" points="15.32 15.36 15.39 16.09 17.01 16.16 16.93 15.34 15.32 15.36"/><polygon class="cls-2" points="3.18 16.4 4.3 15.97 5.28 15.85 5.28 16.73 4.38 16.85 3.3 17.22 3.18 16.4"/><polygon class="cls-3" points="3.3 17.22 4.19 23.9 5.53 29.3 7.9 30.1 13.08 30.27 15.71 29.55 16.47 25.04 17.09 19.32 17.21 16.2 15.28 16.08 4.61 16.85 3.3 17.22"/><polygon class="cls-2" points="17.86 12.22 18.32 12.62 20.12 11.63 23.16 11.56 25.54 12.99 26 12.68 24.87 11.3 22.3 10.52 19.41 10.9 17.86 12.22"/><polygon class="cls-4" points="9.87 24.68 10.24 24.93 11.56 24.81 13.5 24.54 15.49 24.54 16.75 25.05 17.38 26.56 20.03 24.44 22.5 25.36 25.07 23.35 27.31 24.32 28.44 18.43 29.84 12.32 30.15 9.64 29.51 8.67 28.65 9.74 26.86 15.84 25.41 14.25 21.25 12.56 20.18 11.75 19.18 13.28 17.86 14.82 16.82 17.54 16.82 18.13 18.17 18.96 19.06 20.11 20.18 20.95 18.75 21.88 16.17 22.44 13.94 22.61 11.73 23.25 10.45 23.84 9.96 24.31 9.87 24.68"/><polygon class="cls-4" points="3.65 8.54 3.18 9.55 3.18 16.4 4.19 16.02 5.44 15.7 4.69 9.55 4.3 8.54 3.65 8.54"/><polygon class="cls-4" points="15.19 15.2 17.09 15.36 16.71 11.07 16.04 8.96 15.28 9.24 14.87 11.43 15.19 15.2"/><polygon class="cls-4" points="8.1 13.22 6.88 14.85 5.53 16.51 5.3 18.05 5.02 18.29 4.79 18.56 4.79 19.01 5.29 19.32 5.62 19.32 6.23 20.58 7.23 21.7 8.5 22.41 10.05 22.74 11.21 22.67 12.4 22.3 13.4 21.67 14.34 20.71 14.94 19.66 15.28 18.4 15.62 18.48 15.95 18.26 16.11 17.6 15.85 17.08 15.39 16.99 15.02 15.79 13.2 14.56 9.56 14.06 8.1 13.22"/><path class="cls-5" d="M22.72,19.93c.25-.21.35-.84,0-.46s-.52.67-.94.25c-.1-.11-.06-.39-.23-.4s-.06.43,0,.52A.88.88,0,0,0,22.72,19.93Z"/><path class="cls-5" d="M19.13,16.84c.71.15.69-.94.05-.8C18.79,16.12,18.69,16.75,19.13,16.84Zm0-.56a.12.12,0,0,1,0,.24C19,16.54,19,16.28,19.17,16.28Z"/><path class="cls-5" d="M24.29,16.32c.39.43,1.13-.05.78-.57S23.84,15.84,24.29,16.32Zm.18-.48a.12.12,0,0,1,0,.24C24.33,16.1,24.31,15.84,24.47,15.84Z"/><path class="cls-5" d="M18.69,15.31a1.55,1.55,0,0,1,1-.44c.1,0,.31.09.4,0,.26-.21,0-.32-.2-.37a1.14,1.14,0,0,0-.9.18c-.13.07-.43.3-.46.43S18.54,15.46,18.69,15.31Z"/><path class="cls-5" d="M23.85,14.77c.21.12.65-.1.86,0h0c.09,0,.47.41.58.29s-.28-.4-.42-.48a1.85,1.85,0,0,0-.65-.22C24.09,14.39,23.48,14.54,23.85,14.77Z"/><path class="cls-3" d="M19.82,17.77c-.61-.41-1.75.13-1.2.92C19.28,19.64,20.73,18.4,19.82,17.77Z"/><path class="cls-3" d="M24.75,18.34c1,.56,1.51-1.33.43-1.33C24.43,17,24,17.93,24.75,18.34Z"/><path class="cls-5" d="M7.6,17.78c.7-.18.8.17.94.14.42-.09-.26-.49-.63-.49s-1,.27-1,.64S7,17.92,7.6,17.78Z"/><path class="cls-5" d="M14,17a.93.93,0,0,0-1.15.23c-.29.49.12.2.26.11l0,0a.88.88,0,0,1,.55-.13c.32,0,.3.25.51.37C14.7,17.82,14.24,17.1,14,17Z"/><path class="cls-5" d="M11.7,21.43c.42-.32.27-1.35,0-.76-.11.21,0,.33-.2.51a.83.83,0,0,1-.85,0c-.09-.06-.25-.46-.33-.49-.29-.07-.2.26-.13.41A1.07,1.07,0,0,0,11.7,21.43Z"/><path class="cls-3" d="M8,19.16c-.59-.48-1.6.28-1,.91S8.76,19.78,8,19.16Z"/><path class="cls-3" d="M12.88,19.1c.26,1.23,2.17.26,1.33-.54C13.75,18.12,12.72,18.34,12.88,19.1Z"/><path class="cls-5" d="M8.62,16c-.35-.3-1.12.07-1.42.26-.13.08-.67.42-.69.59s0,.35.17.17a2,2,0,0,1,1.12-.61C8,16.36,9.19,16.48,8.62,16Z"/><path class="cls-5" d="M12.35,16.09a2.27,2.27,0,0,1,1.7.07c.47.16.32-.09-.05-.31a2,2,0,0,0-1.12-.37c-.19,0-.71,0-.81.25S12.13,16.16,12.35,16.09Z"/><path class="cls-5" d="M30.1,8.62C28.93,7.56,28.18,10,28,10.8c-.36,1.31-.83,2.65-1.1,4a5.66,5.66,0,0,0-1-1.8c.42,0,.82-.74,1-1.05a2.1,2.1,0,0,0,.23-1.73c-.37-1.43-2-2.38-3.22-1.29.25-.25,0-1-.15-1.29a1.53,1.53,0,0,0-1.1-.89,1.66,1.66,0,0,0-1.84,1.32c-.25-.76-1.43-.88-2.05-.6a1.61,1.61,0,0,0-.67,2.47,1.12,1.12,0,0,0-1.1.17,1.68,1.68,0,0,0-.77-1.39,1,1,0,0,0-1.43.61c-.54,1.25-.27,2.88-.12,4.18a4.25,4.25,0,0,0-3.62-2.05,5.46,5.46,0,0,0-1.56.24,3.42,3.42,0,0,0-.94.46c-.21.16-.43.52-.65.6a4.07,4.07,0,0,1-.47,0,2.21,2.21,0,0,0-.75.25,2.26,2.26,0,0,0-1,.92c-.15-1.26-.25-2.79-.54-4.13a2,2,0,0,0-.85-1.5.83.83,0,0,0-1.17.47c-.62,1.19-.51,3-.52,4.28a37.67,37.67,0,0,0,.2,4.38c.33,2.91.64,5.79,1.24,8.66.25,1.18.38,2.83,1.44,3.61a8.22,8.22,0,0,0,4,1,16.64,16.64,0,0,0,4.93-.24,2.53,2.53,0,0,0,1.73-1,5,5,0,0,0,.36-1.95c0-.18.05-.37.07-.55.17.79-.09,1.86.31,2.56.52.91,2.08.91,3,1a22.26,22.26,0,0,0,3.83-.08,10.65,10.65,0,0,0,1.79-.32,4.2,4.2,0,0,0,1.63-.63,1.86,1.86,0,0,0,.41-1.3c.05-.63.11-1.27.15-1.91a34.21,34.21,0,0,1,.47-3.5c.38-2.21.79-4.29,1.18-6.51.24-1.32.6-2.62.9-3.93C30.48,11.38,30.92,9.37,30.1,8.62Zm-2.87,8.09c0,.33-.23.48-.51.52a2.62,2.62,0,0,0,0-.56c0-.16,0-.31-.08-.47C26.91,16.31,27.19,16.37,27.23,16.71Zm-8.94-4.56c.95-1.2,2.86-1.37,4.27-1.19.91.11,2.85.66,3.1,1.8h0a4.52,4.52,0,0,0-4.08-1.53,13.27,13.27,0,0,0-1.66.24,3,3,0,0,0-.7.23c-.34.15-.73.58-1,.63Zm-.11,3c.5-1.16,1.9-1.77,2.17-3,.67,1.37,2.69,1.63,4,2.15s2.07,1.19,2.09,2.58A4.39,4.39,0,0,1,24.84,20a4.16,4.16,0,0,1-4.66.59A4.24,4.24,0,0,1,18.18,15.15Zm1.52,5.7a3,3,0,0,1-2.32.75c0-.92,0-1.88.1-2.8a5.81,5.81,0,0,0,1.68,1.74C19.34,20.65,19.52,20.76,19.7,20.85Zm-2-8.37a1.45,1.45,0,0,0,.35.12c-.31.1-.54.67-.68,1,0-.45-.06-.9-.12-1.34A2.91,2.91,0,0,0,17.67,12.48Zm-.16,4.84c0,.1,0,.19,0,.29a3.74,3.74,0,0,0,.12.48C16.79,18.32,16.65,17.42,17.51,17.32Zm-.8-1.45V16c-.13-.18-.86,0-1.09,0a1.25,1.25,0,0,0,0-.51,4.9,4.9,0,0,0,1.08.06C16.66,15.54,16.7,15.8,16.71,15.87Zm-1.29-5.2c0-.25,0-1.07.34-1.2s.5,1,.55,1.3c.26,1.46.23,3,.38,4.43a4.35,4.35,0,0,0-1.11-.06c.06-.79-.16-1.64-.18-2.43S15.37,11.35,15.42,10.67Zm.07,7.62a4.84,4.84,0,0,0,.09-1.07C16.11,17.35,16,18.31,15.49,18.29Zm-9.4-2.13c.61-.91,1.84-1.58,2.12-2.67-.08.31.66.7.87.8a4.53,4.53,0,0,0,1.66.39A11.74,11.74,0,0,1,12.8,15,3.7,3.7,0,0,1,15,16.29a2.16,2.16,0,0,1,.27,1.76,5.33,5.33,0,0,1-2.92,4.16,4.93,4.93,0,0,1-5-.69C5.78,20.24,4.89,17.91,6.09,16.16Zm-.88,2.13a3.65,3.65,0,0,0,.23.92,1.42,1.42,0,0,0-.22-.07A.46.46,0,0,1,5.21,18.29ZM3.52,15.34c-.08-1.28-.12-2.57-.08-3.85,0-.37,0-2.4.39-2.45C4.43,9,4.92,15.16,5,15.72A4.31,4.31,0,0,0,3.55,16C3.55,15.81,3.53,15.57,3.52,15.34Zm.09,1.48c0-.46-.06-.33.19-.49a1.73,1.73,0,0,1,.55-.15L5,16a2.75,2.75,0,0,0,0,.64,4.63,4.63,0,0,0-1.4.27A.22.22,0,0,0,3.61,16.82ZM16,25.52A11.64,11.64,0,0,1,15.46,29c-.27.64-1,.71-1.66.78a29.35,29.35,0,0,1-3.86.19,7.76,7.76,0,0,1-3.6-.67c-.9-.53-1-1.58-1.21-2.52-.15-.71-.36-1.41-.5-2.12-.32-1.7-.58-3.42-.76-5.14-.05-.5-.09-1-.14-1.5,0-.13,0-.26,0-.39,0-.35-.08-.31.21-.43s.81-.14,1.19-.26c0,.29.14.73.06,1s-.61.47-.51,1c.07.36.33.46.62.59,0,0,.19,0,.22,0s.1.16.17.3.19.45.32.66a5,5,0,0,0,3.85,2.44A4.9,4.9,0,0,0,14,21.38a5.82,5.82,0,0,0,1.48-2.79c.51.36,1.44-1.55.2-1.66.06,0,0-.66,0-.68a4.48,4.48,0,0,0,1.1,0,8.27,8.27,0,0,1,0,1c-.06.23-.2.37-.13.62s.16.32.19.52a10,10,0,0,1-.05,2c0,.39,0,.78-.05,1.17a2.07,2.07,0,0,1,0,.5c-.14.21-1.1.17-1.45.21a15,15,0,0,0-3.62.81c-.44.17-2.57,1.15-1.74,1.84.44.37,1.31.05,1.82-.05A19.35,19.35,0,0,1,14,24.65a6.43,6.43,0,0,1,1.16,0c.17,0,.71,0,.83.16S16,25.3,16,25.52Zm13.69-15c0,.44-.11.88-.19,1.31-.13.69-.26,1.39-.43,2.07-.39,1.58-.77,3.17-1.14,4.75s-.8,5-.93,5.09-.25-.51-.88-.81a2.08,2.08,0,0,0-1.47-.13c-1,.25-1.81,2.14-2.28,2.11s-.63-1.11-1.41-1.21a2.84,2.84,0,0,0-1.2,0c-2,.47-2,2.39-2.31,2.39s-.21-1.23-1.07-1.45a4.73,4.73,0,0,0-1.75-.33,17.73,17.73,0,0,0-3.48.37,2.23,2.23,0,0,1-.85.1c-.3-.07-.27-.09-.12-.34a3.8,3.8,0,0,1,1.89-1.07,22.25,22.25,0,0,1,4.86-.8,8.37,8.37,0,0,0,2.28-.44,2.59,2.59,0,0,0,1.06-.67c.1-.12.19-.34.3-.37a1.7,1.7,0,0,1,.37.14,4.79,4.79,0,0,0,1.35.19c2.05,0,3.39-1.51,4.22-3.21a2.05,2.05,0,0,1,.18-.43c.21-.3,0-.07.26-.23s.27-.08.37-.18a.87.87,0,0,0,.24-.51c0-.33-.21-.42-.3-.67s-.07,0,0-.27a3.43,3.43,0,0,1,.19-.44c.11-.28.2-.57.29-.86.19-.64.37-1.28.56-1.92l.39-1.4c.1-.35.61-2.22.93-2S29.69,10.31,29.67,10.51Z"/><path class="cls-2" d="M12.84,6.05a2.31,2.31,0,0,0-1.24,1A1.82,1.82,0,0,0,11,5.47a.91.91,0,0,0-1.35.31A2.65,2.65,0,0,0,9.93,8c.32.71.68,1.39,1,2.1a7.56,7.56,0,0,0,2.85-2.43C14.17,6.87,13.85,5.83,12.84,6.05Z"/><path class="cls-3" d="M7.55,9.26c0-1.16.06-2.34.11-3.5,0-.13.11-.6,0-.68s-.56.07-.68.09a17.38,17.38,0,0,0-1.88.38c.5.81,1,1.61,1.54,2.42C6.94,8.41,7.25,8.83,7.55,9.26Z"/><path class="cls-3" d="M16.71,3.87A3.69,3.69,0,0,0,16.31,5c-.14.49-.24,1-.34,1.5a4.81,4.81,0,0,0-.21,1.23A22.37,22.37,0,0,0,18,5.26L19,4l-1.47-.23C17.34,3.77,16.89,3.68,16.71,3.87Z"/><path class="cls-3" d="M14,5.19c.89-.33.15-1.45-.58-1.29C12.44,4.11,12.91,5.63,14,5.19Z"/><path class="cls-3" d="M9.21,3.85c-.54.38.07,1,.59.68S9.69,3.5,9.21,3.85Z"/><path class="cls-3" d="M7.63,10.32c-.73-.83-2.06.3-1.33,1.14S8.3,11.09,7.63,10.32Z"/><path class="cls-2" d="M4.27,6C3.6,5.1,2.38,6.33,2.8,7.2,3.34,8.29,4.89,6.9,4.27,6Z"/><path class="cls-3" d="M13.23,11.25a.65.65,0,0,0,.52-1.18C13,9.68,12.46,10.94,13.23,11.25Z"/><path class="cls-2" d="M25.6,6.64c.17.19.64.91.86,1s.74-.5.89-.61.48-.36.7-.55c.46-.39,1.11-1.28.45-1.81a1.23,1.23,0,0,0-1.63.45,1.37,1.37,0,0,0-1.29-1.14c-.67,0-.94.92-.75,1.48A4,4,0,0,0,25.6,6.64Z"/><path class="cls-3" d="M20.21,4.67c.1.54,0,.66.58.75l1.1.17.71.08c.12-.43.27-.85.39-1.28,0-.14.3-.77.22-.87a4.78,4.78,0,0,0-1.08,0c-.44,0-.89,0-1.33,0a1.45,1.45,0,0,0-.51,0c-.22.1-.17.08-.16.36A6.36,6.36,0,0,0,20.21,4.67Z"/><circle class="cls-1" cx="19.14" cy="16.41" r="0.21"/><circle class="cls-1" cx="24.51" cy="15.97" r="0.21"/></svg>